<?xml version="1.0" standalone="no"?><!DOCTYPE svg PUBLIC "-//W3C//DTD SVG 1.1//EN" "http://www.w3.org/Graphics/SVG/1.1/DTD/svg11.dtd"><svg t="1585558768145" class="icon" viewBox="0 0 1024 1024" version="1.1" xmlns="http://www.w3.org/2000/svg" p-id="14977" width="48" height="48" xmlns:xlink="http://www.w3.org/1999/xlink"><defs><style type="text/css"></style></defs><path d="M910.613 200.188H1024V823.81H910.613zM540.613 200.188H654V823.81H540.613zM0 200.188h56.693V823.81H0zM84.173 200.188h28.347V823.81H84.173zM144.173 200.188h28.347V823.81h-28.347zM206.173 200.188h28.347V823.81h-28.347zM361.653 200.188H390V823.81h-28.347zM421.653 200.188H450V823.81h-28.347zM483.653 200.188H512V823.81h-28.347zM691.653 200.188H720V823.81h-28.347zM753.653 200.188H782V823.81h-28.347zM262 200.188h56.693V823.81H262zM814 200.188h56.693V823.81H814z" fill="#047952" p-id="14978"></path></svg>