<?xml version="1.0" standalone="no"?><!DOCTYPE svg PUBLIC "-//W3C//DTD SVG 1.1//EN" "http://www.w3.org/Graphics/SVG/1.1/DTD/svg11.dtd"><svg t="1585558531110" class="icon" viewBox="0 0 1449 1024" version="1.1" xmlns="http://www.w3.org/2000/svg" p-id="10928" width="67.921875" height="48" xmlns:xlink="http://www.w3.org/1999/xlink"><defs><style type="text/css"></style></defs><path d="M204.613 720.844l693.927-693.935 275.798 275.836-693.89 693.91-275.836-275.811zM245.562 720.844l234.884 234.863 652.971-652.963-234.877-234.892-65.248 65.248 72.076 72.063-20.474 20.466-72.061-72.063-63.031 63.024 145.659 145.659-20.459 20.466-145.659-145.659-63.018 63.008 72.061 72.078-20.474 20.466-72.063-72.07-63.031 63.031 145.687 145.644-20.474 20.483-145.687-145.651-63.001 63.008 72.055 72.048-20.466 20.476-72.055-72.058-63.031 63.037 145.659 145.644-20.468 20.476-145.659-145.66-63.023 63.018 72.063 72.063-20.468 20.459-72.063-72.05-66.325 66.34z" p-id="10929" fill="#047952"></path></svg>