<?xml version="1.0" standalone="no"?><!DOCTYPE svg PUBLIC "-//W3C//DTD SVG 1.1//EN" "http://www.w3.org/Graphics/SVG/1.1/DTD/svg11.dtd"><svg t="1585558684072" class="icon" viewBox="0 0 1024 1024" version="1.1" xmlns="http://www.w3.org/2000/svg" p-id="13001" width="48" height="48" xmlns:xlink="http://www.w3.org/1999/xlink"><defs><style type="text/css"></style></defs><path d="M796.444444 924.444444v33.194667A66.360889 66.360889 0 0 1 730.083556 1024H293.916444A66.360889 66.360889 0 0 1 227.555556 957.639111V924.444444h-45.738667A124.928 124.928 0 0 1 56.888889 799.516444V124.928A124.928 124.928 0 0 1 181.816889 0h660.366222A124.928 124.928 0 0 1 967.111111 124.928v674.588444A124.928 124.928 0 0 1 842.183111 924.444444H796.444444zM181.816889 85.333333A39.594667 39.594667 0 0 0 142.222222 124.928v674.588444A39.594667 39.594667 0 0 0 181.816889 839.111111h660.366222A39.594667 39.594667 0 0 0 881.777778 799.516444V124.928A39.594667 39.594667 0 0 0 842.183111 85.333333H181.816889z m231.992889 396.245334L351.146667 570.88h-125.468445v-56.888889h95.886222l99.84-142.222222 102.584889 199.950222 76.743111-134.741333 54.755556 109.824h171.278222v56.888889H620.288l-22.897778-45.909334-76.017778 133.461334-107.562666-209.635556zM629.674667 199.111111l-42.965334 65.678222H668.444444L535.552 412.444444l48.398222-102.499555H526.222222L566.897778 199.111111h62.776889z" p-id="13002" fill="#047952"></path></svg>