<?xml version="1.0" standalone="no"?><!DOCTYPE svg PUBLIC "-//W3C//DTD SVG 1.1//EN" "http://www.w3.org/Graphics/SVG/1.1/DTD/svg11.dtd"><svg t="1585558659142" class="icon" viewBox="0 0 1024 1024" version="1.1" xmlns="http://www.w3.org/2000/svg" p-id="12559" width="48" height="48" xmlns:xlink="http://www.w3.org/1999/xlink"><defs><style type="text/css"></style></defs><path d="M24 463.7c26.3-0.1 45.1-1.3 71.9-3.5l17.5-1.4-0.2-17.6c-0.7-68 39.1-149 106.5-217 69.3-69.9 152.6-111.6 223.1-111.6h19.4l-0.3-19.2c-0.5-25-0.1-32.9 0.4-46.8l1.4-42.3-19.5 0.1c-98.7 0.4-211.8 55.9-302.4 148.5C53.3 243.3 3.5 349.8 5.1 445.1l0.3 18.6H24zM564.3 92l-0.4 19.2h19.6c70.3 0 153.5 41.6 222.6 111.3C873.1 290 912.7 370.6 912 438l-0.2 17.7 17.6 1.3c26.7 2.1 45.5 3.3 71.6 3.4l18.6 0.1 0.3-18.6c1.6-94.5-47.8-200.4-135.7-290.1C793.8 59.2 680.7 3.8 582 3.4l-19.5-0.1 1.4 42.9c0.5 13.3 0.8 21.3 0.4 45.8zM461.3 929.7l0.4-19.2h-19.6c-71.1 0-155.2-42-224.8-112.2-66.5-67.1-105.8-147-105.2-213.7l0.2-17.6-17.6-1.4c-26.8-2.1-45.7-3.4-71.9-3.4H4.4L4 580.7c-1.6 93.8 47.6 198.8 135 288.1 91.1 93 205 148.8 304.6 149.2l19.5 0.1-1.4-42.4c-0.5-13.5-0.8-21.4-0.4-46zM1001.1 565.4c-26.2 0.1-45 1.3-71.7 3.4l-17.6 1.4 0.2 17.6c0.7 66.2-38.4 145.5-104.4 212.1-69.6 70.1-153.6 112-224.7 112h-0.3l-19.3-0.1 0.4 19.2c0.4 24.5 0.1 32.3-0.4 45.8l-1.4 42.4 19.5-0.1c99.7-0.4 213.5-56.2 304.4-149.1 86.9-88.6 135.8-193 134.2-286l-0.3-18.6h-18.6zM699.7 487.6H550.6L640 219.2 341.8 517.4h149.1L371.6 785.8z" fill="#047952" p-id="12560"></path></svg>