<?xml version="1.0" standalone="no"?><!DOCTYPE svg PUBLIC "-//W3C//DTD SVG 1.1//EN" "http://www.w3.org/Graphics/SVG/1.1/DTD/svg11.dtd"><svg t="1585558424137" class="icon" viewBox="0 0 1024 1024" version="1.1" xmlns="http://www.w3.org/2000/svg" p-id="8271" width="48" height="48" xmlns:xlink="http://www.w3.org/1999/xlink"><defs><style type="text/css"></style></defs><path d="M477.866667 68.266667H68.266667v68.266666h409.6V68.266667zM170.666667 204.8v136.533333h-17.066667c-12.970667 0-24.576 7.168-30.378667 18.773334-5.802667 11.605333-4.778667 25.6 3.072 35.84l51.2 68.266666c6.485333 8.533333 16.725333 13.653333 27.306667 13.653334s20.821333-5.12 27.306667-13.653334l51.2-68.266666c7.850667-10.24 8.874667-24.234667 3.072-35.84A33.723733 33.723733 0 0 0 256 341.333333H238.933333V204.8H170.666667z m136.533333 341.333333H68.266667v68.266667h238.933333v-68.266667zM921.6 68.266667h-307.2c-14.336 0-26.965333 8.874667-32.085333 22.186666l-307.2 819.2c-4.096 10.581333-2.389333 22.186667 3.754666 31.402667 6.826667 9.216 17.066667 14.677333 28.330667 14.677333h614.4c18.773333 0 34.133333-15.36 34.133333-34.133333V102.4c0-18.773333-15.36-34.133333-34.133333-34.133333z m-34.133333 819.2H356.352l281.6-750.933334H887.466667v750.933334z" p-id="8272" fill="#047952"></path></svg>