<?xml version="1.0" standalone="no"?><!DOCTYPE svg PUBLIC "-//W3C//DTD SVG 1.1//EN" "http://www.w3.org/Graphics/SVG/1.1/DTD/svg11.dtd"><svg t="1585558595864" class="icon" viewBox="0 0 1024 1024" version="1.1" xmlns="http://www.w3.org/2000/svg" p-id="12144" width="48" height="48" xmlns:xlink="http://www.w3.org/1999/xlink"><defs><style type="text/css"></style></defs><path d="M512 958.954667a21.333333 21.333333 0 0 1-17.408-9.002667c-12.778667-18.026667-313.173333-443.712-313.173333-619.306667C181.418667 148.330667 329.728 0 512 0c182.293333 0 330.602667 148.330667 330.602667 330.645333 0 175.594667-300.416 601.301333-313.216 619.306667a21.269333 21.269333 0 0 1-17.386667 9.002667zM512 42.666667c-158.762667 0-287.914667 129.194667-287.914667 287.978666 0 139.264 223.146667 475.029333 287.914667 569.536 64.768-94.528 287.936-430.272 287.936-569.536C799.936 171.861333 670.762667 42.666667 512 42.666667z" p-id="12145" fill="#047952"></path><path d="M512 456.874667c-80.170667 0-145.408-65.237333-145.408-145.408S431.829333 166.058667 512 166.058667c80.192 0 145.408 65.237333 145.408 145.408S592.192 456.874667 512 456.874667z m0-248.149334c-56.64 0-102.741333 46.101333-102.741333 102.741334s46.101333 102.741333 102.741333 102.741333c56.661333 0 102.741333-46.101333 102.741333-102.741333S568.661333 208.725333 512 208.725333zM874.24 1024H149.76a21.333333 21.333333 0 0 1-20.010667-28.714667l129.237334-351.104a21.333333 21.333333 0 1 1 40.042666 14.741334L180.352 981.333333h663.317333l-118.656-322.389333a21.333333 21.333333 0 0 1 40.042667-14.741333l129.216 351.104c2.410667 6.549333 1.450667 13.845333-2.517333 19.584a21.397333 21.397333 0 0 1-17.514667 9.109333z" p-id="12146" fill="#047952"></path></svg>