<?xml version="1.0" standalone="no"?><!DOCTYPE svg PUBLIC "-//W3C//DTD SVG 1.1//EN" "http://www.w3.org/Graphics/SVG/1.1/DTD/svg11.dtd"><svg t="1585558332786" class="icon" viewBox="0 0 1024 1024" version="1.1" xmlns="http://www.w3.org/2000/svg" p-id="6001" width="48" height="48" xmlns:xlink="http://www.w3.org/1999/xlink"><defs><style type="text/css"></style></defs><path d="M409.949 465.613c0 39.708 22.631 74.037 55.664 90.915v270.9c0 20.412-16.707 37.111-37.11 37.111h-102.05c-25.604 0-46.387 20.782-46.387 46.385 0 25.604 20.783 46.388 46.386 46.388h371.094c25.603 0 46.386-20.785 46.386-46.388 0-25.603-20.783-46.385-46.386-46.385H595.495c-20.403 0-37.11-16.7-37.11-37.111v-270.9c33.014-16.88 55.664-51.207 55.664-90.915 0-56.407-45.644-102.05-102.051-102.05s-102.05 45.643-102.05 102.05z m-148.437 3.714c0 46.387 12.43 89.803 33.957 127.283l2.791 4.266c7.59 15.213 23.193 25.603 41.186 25.603 25.603 0 46.386-20.964 46.386-46.94 0-8.905-2.429-17.258-6.687-24.304l-5.02-8.538c-12.61-23.01-19.84-49.357-19.84-77.37 0-87.954 70.702-161.43 157.715-161.43s157.715 73.476 157.715 161.43c0 28.013-7.247 54.36-19.86 77.37l-5 8.538c-4.277 7.047-6.687 15.4-6.687 24.304 0 25.975 20.783 46.94 46.386 46.94 17.993 0 33.577-10.39 41.186-25.603l2.79-4.266c21.528-37.48 33.958-80.896 33.958-127.283 0-139.72-112.07-254.202-250.488-254.202s-250.488 114.48-250.488 254.202z m-148.438 0c0 90.725 29.68 174.414 79.98 241.764l3.334 4.639c8.337 11.506 22.07 18.928 37.291 18.928 25.603 0 46.387-20.964 46.387-46.76 0-10.762-3.516-20.781-9.64-28.756l-3.534-4.83c-38.414-51.579-61.046-115.596-61.046-184.984 0-170.705 137.112-309.867 306.152-309.867 169.021 0 306.153 139.161 306.153 309.867 0 69.39-22.65 133.407-61.046 184.984l-3.534 4.83c-6.124 7.975-9.64 17.995-9.64 28.756 0 25.795 20.784 46.76 46.387 46.76 15.202 0 28.954-7.422 37.291-18.928l3.334-4.639c50.3-67.35 79.98-151.039 79.98-241.764 0-222.474-178.68-402.64-398.926-402.64s-398.923 180.165-398.923 402.64z" p-id="6002" fill="#047952"></path></svg>