<?xml version="1.0" standalone="no"?><!DOCTYPE svg PUBLIC "-//W3C//DTD SVG 1.1//EN" "http://www.w3.org/Graphics/SVG/1.1/DTD/svg11.dtd"><svg t="1585558357210" class="icon" viewBox="0 0 1024 1024" version="1.1" xmlns="http://www.w3.org/2000/svg" p-id="6963" width="48" height="48" xmlns:xlink="http://www.w3.org/1999/xlink"><defs><style type="text/css"></style></defs><path d="M512 80c58.355 0 114.922 11.411 168.129 33.916 51.434 21.754 97.641 52.914 137.341 92.614s70.86 85.908 92.614 137.34C932.589 397.078 944 453.645 944 512c0 58.355-11.411 114.922-33.916 168.129-21.754 51.434-52.914 97.641-92.614 137.341s-85.907 70.86-137.341 92.614C626.922 932.589 570.355 944 512 944c-58.355 0-114.922-11.411-168.129-33.916-51.433-21.754-97.641-52.914-137.341-92.614s-70.86-85.907-92.614-137.341C91.411 626.922 80 570.355 80 512c0-58.355 11.411-114.922 33.916-168.129 21.754-51.433 52.915-97.641 92.614-137.34 39.7-39.7 85.908-70.86 137.341-92.614C397.078 91.411 453.645 80 512 80m0-80C229.23 0 0 229.23 0 512s229.23 512 512 512 512-229.23 512-512S794.77 0 512 0z" p-id="6964" fill="#047952"></path><path d="M469.48 115.15h85.04V512h-85.04z" p-id="6965" fill="#047952"></path><path d="M469.48 469.481h297.637v85.039H469.48z" p-id="6966" fill="#047952"></path></svg>