<?xml version="1.0" standalone="no"?><!DOCTYPE svg PUBLIC "-//W3C//DTD SVG 1.1//EN" "http://www.w3.org/Graphics/SVG/1.1/DTD/svg11.dtd"><svg t="1585558386167" class="icon" viewBox="0 0 1024 1024" version="1.1" xmlns="http://www.w3.org/2000/svg" p-id="7946" width="48" height="48" xmlns:xlink="http://www.w3.org/1999/xlink"><defs><style type="text/css"></style></defs><path d="M512 83c46.9 0 85 38.1 85 85v368.8l24 14.6c30.3 18.4 55.6 44.4 73.2 75.1C712.4 658.2 722 694.3 722 731c0 56-21.8 108.7-61.4 148.4C621 919 568.3 940.9 512.3 941h-0.3c-28.2 0-55.6-5.6-81.5-16.5-25-10.6-47.5-25.8-66.8-45.1-19.4-19.4-34.5-41.8-45.2-66.8-11-25.8-16.5-53.3-16.5-81.5 0-36.7 9.6-72.8 27.7-104.4 17.6-30.7 43-56.7 73.2-75.1l24-14.6V168c0.1-46.9 38.2-85 85.1-85m0-50c-74.6 0-135 60.4-135 135v340.7C302.1 554.4 252 636.8 252 731c0 143.2 116.9 260 260 260h0.4C655.8 990.8 772 874.5 772 731c0-94.2-50.1-176.6-125-222.2V168c0-74.6-60.4-135-135-135z m25 612.9V359.4c0-13.8-11.2-25-25-25s-25 11.2-25 25v286.5c-37.5 10.8-65 45.4-65 86.5 0 49.7 40.3 90 90 90s90-40.3 90-90c0-41-27.5-75.7-65-86.5z" fill="#047952" p-id="7947"></path></svg>