<?xml version="1.0" standalone="no"?><!DOCTYPE svg PUBLIC "-//W3C//DTD SVG 1.1//EN" "http://www.w3.org/Graphics/SVG/1.1/DTD/svg11.dtd"><svg t="1584527372437" class="icon" viewBox="0 0 1024 1024" version="1.1" xmlns="http://www.w3.org/2000/svg" p-id="2050" xmlns:xlink="http://www.w3.org/1999/xlink" width="48" height="48"><defs><style type="text/css"></style></defs><path d="M1014.4 971L731.1 687.7c28.4-32.8 51.3-69.6 68.2-109.7C821 526.6 832 472.1 832 416s-11-110.6-32.7-161.9c-21-49.5-50.9-94-89.1-132.2-38.2-38.3-82.7-68.2-132.3-89.2C526.6 11 472.1 0 416 0S305.4 11 254.1 32.7c-49.5 21-94 50.9-132.2 89.1-38.3 38.2-68.2 82.7-89.2 132.3C11 305.4 0 359.9 0 416s11 110.6 32.7 161.9c21 49.5 50.9 94 89.1 132.2 38.2 38.2 82.7 68.2 132.2 89.1C305.4 821 359.9 832 416 832s110.6-11 161.9-32.7c40.5-17.1 77.7-40.4 110.8-69.1L972 1013.4c11.7 11.7 30.8 11.7 42.4 0 11.7-11.7 11.7-30.8 0-42.4zM416 772c-95.1 0-184.5-37-251.7-104.3C97 600.5 60 511.1 60 416s37-184.5 104.3-251.7C231.5 97 320.9 60 416 60s184.5 37 251.7 104.3C735 231.5 772 320.9 772 416s-37 184.5-104.3 251.7C600.5 735 511.1 772 416 772z" fill="" p-id="2051"></path></svg>