<?xml version="1.0" standalone="no"?><!DOCTYPE svg PUBLIC "-//W3C//DTD SVG 1.1//EN" "http://www.w3.org/Graphics/SVG/1.1/DTD/svg11.dtd"><svg t="1584527554436" class="icon" viewBox="0 0 1026 1024" version="1.1" xmlns="http://www.w3.org/2000/svg" p-id="4949" xmlns:xlink="http://www.w3.org/1999/xlink" width="48.09375" height="48"><defs><style type="text/css"></style></defs><path d="M634.873715 602.628172L438.779656 401.414164c-5.631944-6.143939-13.823863-8.703914-22.015782-7.679924-8.191919 1.02399-15.359848 6.655934-18.943812 13.823863l-163.838378 325.628776c-6.143939 12.799873-1.02399 28.159721 11.263888 34.30366 3.583965 2.04798 7.679924 2.559975 11.263889 2.559975 9.215909 0 18.431818-5.119949 23.039771-14.335858l147.454541-293.373096 195.582063 200.702013c5.631944 5.631944 13.823863 8.703914 22.015782 7.679924 8.191919-1.02399 15.359848-6.143939 18.943813-13.311868l223.22979-414.203899 17.407828 151.038505c1.535985 13.311868 12.799873 22.527777 25.599746 22.527777h3.07197c13.311868-1.02399 23.551767-13.823863 22.015782-28.159722l-25.599747-224.25378c-1.02399-7.167929-4.607954-13.311868-10.239898-17.407827-5.631944-4.095959-12.799873-6.143939-19.455808-4.607955l-218.109841 35.839646c-13.823863 2.04798-23.551767 15.359848-20.991792 29.183711 2.04798 13.823863 15.359848 23.551767 29.183711 20.991792l161.278404-26.623737c0 0.511995-0.511995 0.511995-0.511995 1.02399L634.873715 602.628172z m338.428649-42.49558c-26.111741 0-47.615529 19.455807-47.615528 44.031564l-6.143939 336.38067H97.791032V83.465311H481.275235c25.087752 0 45.567549-18.943812 45.567549-41.983584s-20.479797-41.983584-46.079544-41.47159H36.35164C27.647726 0.010137 18.943812 2.570112 12.287878 7.690061 6.143939 12.810011 2.559975 19.465945 2.559975 26.633874v970.74239c0 7.167929 3.583965 13.823863 9.727903 18.943812s14.847853 7.679924 24.063762 7.679924h955.894537c8.703914 0 17.407828-2.559975 23.551767-7.679924s9.727904-11.775883 9.727903-18.943812l1.02399-393.212108c0-24.575757-26.623736-44.031564-53.247473-44.031564z" p-id="4950"></path></svg>